<mxfile host="app.diagrams.net" modified="2020-03-21T08:12:30.893Z" agent="Mozilla/5.0 (Macintosh; Intel Mac OS X 10_11_6) AppleWebKit/537.36 (KHTML, like Gecko) Chrome/80.0.3987.122 Safari/537.36" etag="J8i3TWbAxtdJNqv3qN6Y" version="12.8.8" type="github">
  <diagram id="9vjQtzVJ7qbeVhoStUTl" name="第 1 页">
    <mxGraphModel dx="946" dy="559" grid="1" gridSize="10" guides="1" tooltips="1" connect="1" arrows="1" fold="1" page="1" pageScale="1" pageWidth="827" pageHeight="1169" math="0" shadow="0">
      <root>
        <mxCell id="0" />
        <mxCell id="1" parent="0" />
        <mxCell id="tA1kky_qQhR9MNmGrfL9-79" style="edgeStyle=orthogonalEdgeStyle;rounded=0;orthogonalLoop=1;jettySize=auto;html=1;exitX=0.5;exitY=0;exitDx=0;exitDy=0;entryX=0.5;entryY=1;entryDx=0;entryDy=0;" edge="1" parent="1" source="tA1kky_qQhR9MNmGrfL9-76" target="tA1kky_qQhR9MNmGrfL9-78">
          <mxGeometry relative="1" as="geometry" />
        </mxCell>
        <mxCell id="tA1kky_qQhR9MNmGrfL9-76" value="" style="rounded=0;whiteSpace=wrap;html=1;strokeColor=#000000;align=center;" vertex="1" parent="1">
          <mxGeometry x="20" y="790" width="150" height="90" as="geometry" />
        </mxCell>
        <mxCell id="R647riTE8hrRx7rFXN2j-3" style="edgeStyle=orthogonalEdgeStyle;rounded=0;orthogonalLoop=1;jettySize=auto;html=1;exitX=0.5;exitY=0.5;exitDx=0;exitDy=0;exitPerimeter=0;entryX=0;entryY=0.5;entryDx=0;entryDy=0;" parent="1" source="R647riTE8hrRx7rFXN2j-1" target="R647riTE8hrRx7rFXN2j-2" edge="1">
          <mxGeometry relative="1" as="geometry" />
        </mxCell>
        <mxCell id="R647riTE8hrRx7rFXN2j-1" value="Actor" style="shape=umlActor;verticalLabelPosition=bottom;labelBackgroundColor=#ffffff;verticalAlign=top;html=1;outlineConnect=0;" parent="1" vertex="1">
          <mxGeometry x="80" y="190" width="30" height="60" as="geometry" />
        </mxCell>
        <mxCell id="R647riTE8hrRx7rFXN2j-7" style="edgeStyle=orthogonalEdgeStyle;rounded=0;orthogonalLoop=1;jettySize=auto;html=1;exitX=0.5;exitY=0;exitDx=0;exitDy=0;" parent="1" source="R647riTE8hrRx7rFXN2j-2" target="R647riTE8hrRx7rFXN2j-6" edge="1">
          <mxGeometry relative="1" as="geometry" />
        </mxCell>
        <mxCell id="R647riTE8hrRx7rFXN2j-2" value="ApiServer" style="rounded=1;whiteSpace=wrap;html=1;" parent="1" vertex="1">
          <mxGeometry x="260" y="190" width="120" height="60" as="geometry" />
        </mxCell>
        <mxCell id="R647riTE8hrRx7rFXN2j-4" value="&lt;h1&gt;Resource&lt;/h1&gt;&lt;p&gt;apiversion: v1&lt;/p&gt;&lt;p&gt;kind: Instance&lt;/p&gt;&lt;p&gt;metadata: datalab&lt;/p&gt;&lt;p&gt;spec: {...}&lt;/p&gt;" style="text;html=1;spacing=5;spacingTop=-20;whiteSpace=wrap;overflow=hidden;rounded=0;strokeColor=#000000;dashed=1;" parent="1" vertex="1">
          <mxGeometry x="120" y="30" width="130" height="150" as="geometry" />
        </mxCell>
        <mxCell id="R647riTE8hrRx7rFXN2j-5" value="1. post /api/v1/instances" style="text;html=1;strokeColor=none;fillColor=none;align=center;verticalAlign=middle;whiteSpace=wrap;rounded=0;" parent="1" vertex="1">
          <mxGeometry x="100" y="200" width="170" height="20" as="geometry" />
        </mxCell>
        <mxCell id="R647riTE8hrRx7rFXN2j-6" value="etcd" style="shape=cylinder;whiteSpace=wrap;html=1;boundedLbl=1;backgroundOutline=1;" parent="1" vertex="1">
          <mxGeometry x="290" y="50" width="60" height="80" as="geometry" />
        </mxCell>
        <mxCell id="R647riTE8hrRx7rFXN2j-8" value="3. InstanceStorage.Create" style="text;html=1;align=center;verticalAlign=middle;resizable=0;points=[];autosize=1;" parent="1" vertex="1">
          <mxGeometry x="320" y="150" width="160" height="20" as="geometry" />
        </mxCell>
        <mxCell id="R647riTE8hrRx7rFXN2j-10" style="edgeStyle=orthogonalEdgeStyle;curved=1;rounded=0;orthogonalLoop=1;jettySize=auto;html=1;exitX=0.25;exitY=1;exitDx=0;exitDy=0;entryX=0.75;entryY=1;entryDx=0;entryDy=0;" parent="1" source="R647riTE8hrRx7rFXN2j-2" target="R647riTE8hrRx7rFXN2j-2" edge="1">
          <mxGeometry relative="1" as="geometry" />
        </mxCell>
        <mxCell id="R647riTE8hrRx7rFXN2j-11" value="2. Validate Resource" style="text;html=1;align=center;verticalAlign=middle;resizable=0;points=[];autosize=1;" parent="1" vertex="1">
          <mxGeometry x="255" y="271" width="130" height="20" as="geometry" />
        </mxCell>
        <mxCell id="R647riTE8hrRx7rFXN2j-13" value="Actor" style="shape=umlActor;verticalLabelPosition=bottom;labelBackgroundColor=#ffffff;verticalAlign=top;html=1;outlineConnect=0;" parent="1" vertex="1">
          <mxGeometry x="520" y="190" width="30" height="60" as="geometry" />
        </mxCell>
        <mxCell id="R647riTE8hrRx7rFXN2j-24" style="edgeStyle=orthogonalEdgeStyle;curved=1;rounded=0;orthogonalLoop=1;jettySize=auto;html=1;exitX=0;exitY=0.5;exitDx=0;exitDy=0;entryX=0.5;entryY=0.5;entryDx=0;entryDy=0;entryPerimeter=0;" parent="1" source="R647riTE8hrRx7rFXN2j-15" target="R647riTE8hrRx7rFXN2j-13" edge="1">
          <mxGeometry relative="1" as="geometry" />
        </mxCell>
        <mxCell id="R647riTE8hrRx7rFXN2j-15" value="ApiServer" style="rounded=1;whiteSpace=wrap;html=1;" parent="1" vertex="1">
          <mxGeometry x="700" y="190" width="120" height="60" as="geometry" />
        </mxCell>
        <mxCell id="R647riTE8hrRx7rFXN2j-22" style="edgeStyle=orthogonalEdgeStyle;curved=1;rounded=0;orthogonalLoop=1;jettySize=auto;html=1;exitX=0.5;exitY=1;exitDx=0;exitDy=0;" parent="1" source="R647riTE8hrRx7rFXN2j-18" target="R647riTE8hrRx7rFXN2j-15" edge="1">
          <mxGeometry relative="1" as="geometry" />
        </mxCell>
        <mxCell id="R647riTE8hrRx7rFXN2j-18" value="etcd" style="shape=cylinder;whiteSpace=wrap;html=1;boundedLbl=1;backgroundOutline=1;" parent="1" vertex="1">
          <mxGeometry x="730" y="50" width="60" height="80" as="geometry" />
        </mxCell>
        <mxCell id="R647riTE8hrRx7rFXN2j-23" value="4. Create Success" style="text;html=1;align=center;verticalAlign=middle;resizable=0;points=[];autosize=1;" parent="1" vertex="1">
          <mxGeometry x="760" y="150" width="110" height="20" as="geometry" />
        </mxCell>
        <mxCell id="R647riTE8hrRx7rFXN2j-25" value="5. Post Success" style="text;html=1;strokeColor=none;fillColor=none;align=center;verticalAlign=middle;whiteSpace=wrap;rounded=0;" parent="1" vertex="1">
          <mxGeometry x="540" y="200" width="170" height="20" as="geometry" />
        </mxCell>
        <mxCell id="tA1kky_qQhR9MNmGrfL9-27" style="edgeStyle=orthogonalEdgeStyle;rounded=0;orthogonalLoop=1;jettySize=auto;html=1;exitX=0.5;exitY=0;exitDx=0;exitDy=0;" edge="1" source="tA1kky_qQhR9MNmGrfL9-28" target="tA1kky_qQhR9MNmGrfL9-29" parent="1">
          <mxGeometry relative="1" as="geometry" />
        </mxCell>
        <mxCell id="tA1kky_qQhR9MNmGrfL9-28" value="ApiServer" style="rounded=1;whiteSpace=wrap;html=1;" vertex="1" parent="1">
          <mxGeometry x="20" y="520" width="120" height="60" as="geometry" />
        </mxCell>
        <mxCell id="tA1kky_qQhR9MNmGrfL9-29" value="etcd" style="shape=cylinder;whiteSpace=wrap;html=1;boundedLbl=1;backgroundOutline=1;" vertex="1" parent="1">
          <mxGeometry x="50" y="380" width="60" height="80" as="geometry" />
        </mxCell>
        <mxCell id="tA1kky_qQhR9MNmGrfL9-30" value="1. ListWatch" style="text;html=1;align=center;verticalAlign=middle;resizable=0;points=[];autosize=1;" vertex="1" parent="1">
          <mxGeometry x="80" y="480" width="80" height="20" as="geometry" />
        </mxCell>
        <mxCell id="tA1kky_qQhR9MNmGrfL9-32" value="ApiServer" style="rounded=1;whiteSpace=wrap;html=1;" vertex="1" parent="1">
          <mxGeometry x="260" y="520" width="120" height="60" as="geometry" />
        </mxCell>
        <mxCell id="tA1kky_qQhR9MNmGrfL9-35" style="edgeStyle=orthogonalEdgeStyle;rounded=0;orthogonalLoop=1;jettySize=auto;html=1;exitX=0.5;exitY=1;exitDx=0;exitDy=0;" edge="1" parent="1" source="tA1kky_qQhR9MNmGrfL9-33" target="tA1kky_qQhR9MNmGrfL9-32">
          <mxGeometry relative="1" as="geometry" />
        </mxCell>
        <mxCell id="tA1kky_qQhR9MNmGrfL9-33" value="etcd" style="shape=cylinder;whiteSpace=wrap;html=1;boundedLbl=1;backgroundOutline=1;" vertex="1" parent="1">
          <mxGeometry x="290" y="380" width="60" height="80" as="geometry" />
        </mxCell>
        <mxCell id="tA1kky_qQhR9MNmGrfL9-34" value="2. WatchEvent/Notification" style="text;html=1;align=center;verticalAlign=middle;resizable=0;points=[];autosize=1;" vertex="1" parent="1">
          <mxGeometry x="320" y="480" width="160" height="20" as="geometry" />
        </mxCell>
        <mxCell id="tA1kky_qQhR9MNmGrfL9-44" style="edgeStyle=orthogonalEdgeStyle;rounded=0;orthogonalLoop=1;jettySize=auto;html=1;exitX=0.5;exitY=0;exitDx=0;exitDy=0;" edge="1" source="tA1kky_qQhR9MNmGrfL9-45" target="tA1kky_qQhR9MNmGrfL9-46" parent="1">
          <mxGeometry relative="1" as="geometry" />
        </mxCell>
        <mxCell id="tA1kky_qQhR9MNmGrfL9-45" value="ApiServer" style="rounded=1;whiteSpace=wrap;html=1;" vertex="1" parent="1">
          <mxGeometry x="670" y="470" width="120" height="60" as="geometry" />
        </mxCell>
        <mxCell id="tA1kky_qQhR9MNmGrfL9-46" value="etcd" style="shape=cylinder;whiteSpace=wrap;html=1;boundedLbl=1;backgroundOutline=1;" vertex="1" parent="1">
          <mxGeometry x="700" y="350" width="60" height="80" as="geometry" />
        </mxCell>
        <mxCell id="tA1kky_qQhR9MNmGrfL9-54" style="edgeStyle=orthogonalEdgeStyle;rounded=0;orthogonalLoop=1;jettySize=auto;html=1;exitX=0.5;exitY=0;exitDx=0;exitDy=0;entryX=0.5;entryY=1;entryDx=0;entryDy=0;" edge="1" parent="1" source="tA1kky_qQhR9MNmGrfL9-48" target="tA1kky_qQhR9MNmGrfL9-45">
          <mxGeometry relative="1" as="geometry" />
        </mxCell>
        <mxCell id="tA1kky_qQhR9MNmGrfL9-48" value="Kubelet" style="rounded=1;whiteSpace=wrap;html=1;" vertex="1" parent="1">
          <mxGeometry x="670" y="570" width="120" height="60" as="geometry" />
        </mxCell>
        <mxCell id="tA1kky_qQhR9MNmGrfL9-55" style="edgeStyle=orthogonalEdgeStyle;rounded=0;orthogonalLoop=1;jettySize=auto;html=1;exitX=0;exitY=0.5;exitDx=0;exitDy=0;entryX=1;entryY=0.5;entryDx=0;entryDy=0;" edge="1" parent="1" source="tA1kky_qQhR9MNmGrfL9-49" target="tA1kky_qQhR9MNmGrfL9-45">
          <mxGeometry relative="1" as="geometry" />
        </mxCell>
        <mxCell id="tA1kky_qQhR9MNmGrfL9-49" value="Scheduler" style="rounded=1;whiteSpace=wrap;html=1;" vertex="1" parent="1">
          <mxGeometry x="840" y="430" width="120" height="60" as="geometry" />
        </mxCell>
        <mxCell id="tA1kky_qQhR9MNmGrfL9-56" style="edgeStyle=orthogonalEdgeStyle;rounded=0;orthogonalLoop=1;jettySize=auto;html=1;exitX=0;exitY=0.5;exitDx=0;exitDy=0;entryX=1;entryY=0.5;entryDx=0;entryDy=0;" edge="1" parent="1" source="tA1kky_qQhR9MNmGrfL9-50" target="tA1kky_qQhR9MNmGrfL9-45">
          <mxGeometry relative="1" as="geometry" />
        </mxCell>
        <mxCell id="tA1kky_qQhR9MNmGrfL9-50" value="Controller" style="rounded=1;whiteSpace=wrap;html=1;" vertex="1" parent="1">
          <mxGeometry x="840" y="510" width="120" height="60" as="geometry" />
        </mxCell>
        <mxCell id="tA1kky_qQhR9MNmGrfL9-53" style="edgeStyle=orthogonalEdgeStyle;rounded=0;orthogonalLoop=1;jettySize=auto;html=1;exitX=1;exitY=0.5;exitDx=0;exitDy=0;entryX=0;entryY=0.5;entryDx=0;entryDy=0;" edge="1" parent="1" source="tA1kky_qQhR9MNmGrfL9-52" target="tA1kky_qQhR9MNmGrfL9-45">
          <mxGeometry relative="1" as="geometry" />
        </mxCell>
        <mxCell id="tA1kky_qQhR9MNmGrfL9-52" value="Kubectl" style="rounded=1;whiteSpace=wrap;html=1;" vertex="1" parent="1">
          <mxGeometry x="520" y="470" width="120" height="60" as="geometry" />
        </mxCell>
        <mxCell id="tA1kky_qQhR9MNmGrfL9-69" style="edgeStyle=orthogonalEdgeStyle;rounded=0;orthogonalLoop=1;jettySize=auto;html=1;exitX=0.5;exitY=1;exitDx=0;exitDy=0;entryX=0;entryY=0.5;entryDx=0;entryDy=0;" edge="1" parent="1" source="tA1kky_qQhR9MNmGrfL9-66" target="tA1kky_qQhR9MNmGrfL9-46">
          <mxGeometry relative="1" as="geometry" />
        </mxCell>
        <mxCell id="tA1kky_qQhR9MNmGrfL9-66" value="Pod" style="text;html=1;strokeColor=none;fillColor=none;align=center;verticalAlign=middle;whiteSpace=wrap;rounded=0;dashed=1;" vertex="1" parent="1">
          <mxGeometry x="640" y="305" width="40" height="20" as="geometry" />
        </mxCell>
        <mxCell id="tA1kky_qQhR9MNmGrfL9-70" style="edgeStyle=orthogonalEdgeStyle;rounded=0;orthogonalLoop=1;jettySize=auto;html=1;exitX=0.5;exitY=1;exitDx=0;exitDy=0;entryX=0.5;entryY=0;entryDx=0;entryDy=0;" edge="1" parent="1" source="tA1kky_qQhR9MNmGrfL9-67" target="tA1kky_qQhR9MNmGrfL9-46">
          <mxGeometry relative="1" as="geometry">
            <mxPoint x="730" y="335" as="targetPoint" />
          </mxGeometry>
        </mxCell>
        <mxCell id="tA1kky_qQhR9MNmGrfL9-67" value="Deployment" style="text;html=1;strokeColor=none;fillColor=none;align=center;verticalAlign=middle;whiteSpace=wrap;rounded=0;dashed=1;" vertex="1" parent="1">
          <mxGeometry x="710" y="305" width="40" height="20" as="geometry" />
        </mxCell>
        <mxCell id="tA1kky_qQhR9MNmGrfL9-72" style="edgeStyle=orthogonalEdgeStyle;rounded=0;orthogonalLoop=1;jettySize=auto;html=1;exitX=0.5;exitY=1;exitDx=0;exitDy=0;entryX=1;entryY=0.5;entryDx=0;entryDy=0;" edge="1" parent="1" source="tA1kky_qQhR9MNmGrfL9-68" target="tA1kky_qQhR9MNmGrfL9-46">
          <mxGeometry relative="1" as="geometry" />
        </mxCell>
        <mxCell id="tA1kky_qQhR9MNmGrfL9-68" value="Custom Resource" style="text;html=1;strokeColor=none;fillColor=none;align=center;verticalAlign=middle;whiteSpace=wrap;rounded=0;dashed=1;" vertex="1" parent="1">
          <mxGeometry x="780" y="300" width="40" height="30" as="geometry" />
        </mxCell>
        <mxCell id="tA1kky_qQhR9MNmGrfL9-73" value="Watch Resource&lt;br&gt;CUD Event" style="text;html=1;strokeColor=none;fillColor=none;align=center;verticalAlign=middle;whiteSpace=wrap;rounded=0;dashed=1;" vertex="1" parent="1">
          <mxGeometry x="635" y="438" width="100" height="30" as="geometry" />
        </mxCell>
        <mxCell id="tA1kky_qQhR9MNmGrfL9-75" value="接入层" style="rounded=1;whiteSpace=wrap;html=1;" vertex="1" parent="1">
          <mxGeometry x="30" y="840" width="130" height="30" as="geometry" />
        </mxCell>
        <mxCell id="tA1kky_qQhR9MNmGrfL9-78" value="etcd" style="shape=cylinder;whiteSpace=wrap;html=1;boundedLbl=1;backgroundOutline=1;" vertex="1" parent="1">
          <mxGeometry x="65" y="680" width="60" height="80" as="geometry" />
        </mxCell>
        <mxCell id="tA1kky_qQhR9MNmGrfL9-80" value="ApiServer" style="text;html=1;strokeColor=none;fillColor=none;align=center;verticalAlign=middle;whiteSpace=wrap;rounded=0;dashed=1;" vertex="1" parent="1">
          <mxGeometry x="75" y="880" width="40" height="20" as="geometry" />
        </mxCell>
        <mxCell id="tA1kky_qQhR9MNmGrfL9-85" value="RESTStorage" style="rounded=1;whiteSpace=wrap;html=1;" vertex="1" parent="1">
          <mxGeometry x="30" y="800" width="130" height="30" as="geometry" />
        </mxCell>
      </root>
    </mxGraphModel>
  </diagram>
</mxfile>
